<svg xmlns="http://www.w3.org/2000/svg" id="Capa_1" style="" viewBox="0 0 512.053 512.053" x="0px" y="0px" xmlns:xml="http://www.w3.org/XML/1998/namespace" xml:space="preserve" version="1.1">
<g>
	<path style="fill: #ff0000;" d="M 365.027 44.5 c -30 -29.667 -66.333 -44.5 -109 -44.5 s -79 14.833 -109 44.5 s -45 65.5 -45 107.5 c 0 25.333 12.833 67.667 38.5 127 c 25.667 59.334 51.333 113.334 77 162 s 38.5 72.334 38.5 71 c 4 -7.334 9.5 -17.334 16.5 -30 s 19.333 -36.5 37 -71.5 s 33.167 -67.166 46.5 -96.5 c 13.334 -29.332 25.667 -59.667 37 -91 s 17 -55 17 -71 C 410.027 110 395.027 74.167 365.027 44.5 Z M 289.027 184 c -9.333 9.333 -20.5 14 -33.5 14 c -13 0 -24.167 -4.667 -33.5 -14 s -14 -20.5 -14 -33.5 s 4.667 -24 14 -33 c 9.333 -9 20.5 -13.5 33.5 -13.5 c 13 0 24.167 4.5 33.5 13.5 s 14 20 14 33 S 298.36 174.667 289.027 184 Z" />
</g>
<g>
</g>
<g>
</g>
<g>
</g>
<g>
</g>
<g>
</g>
<g>
</g>
<g>
</g>
<g>
</g>
<g>
</g>
<g>
</g>
<g>
</g>
<g>
</g>
<g>
</g>
<g>
</g>
<g>
</g>
</svg>
